<svg width="32" height="18" viewBox="0 0 32 18" fill="none" xmlns="http://www.w3.org/2000/svg">
<path fill-rule="evenodd" clip-rule="evenodd" d="M24.0408 0.225932C23.7396 -0.0753106 23.2496 -0.0753106 22.9471 0.225932C22.6459 0.528424 22.6459 1.01841 22.9471 1.31965L29.3669 7.73824H0.773731C0.346241 7.73824 0 8.08449 0 8.51197C0 8.93946 0.346241 9.28571 0.773731 9.28571H29.3519L22.9471 15.6905C22.6459 15.9918 22.6459 16.4818 22.9471 16.7843C23.0996 16.9343 23.2971 17.0105 23.4946 17.0105C23.6921 17.0105 23.8908 16.9343 24.0408 16.7843L31.7731 9.05196C32.0756 8.74947 32.0756 8.26073 31.7731 7.95824L24.0408 0.225932Z" fill="#3D4641"/>
</svg>
