<svg width="25" height="28" viewBox="0 0 25 28" fill="none" xmlns="http://www.w3.org/2000/svg">
<path d="M21.875 12.25H20.5625V8.3125C20.5625 3.72969 16.8328 0 12.25 0C7.66719 0 3.9375 3.72969 3.9375 8.3125V12.25H2.625C1.17578 12.25 0 13.4258 0 14.875V25.375C0 26.8242 1.17578 28 2.625 28H21.875C23.3242 28 24.5 26.8242 24.5 25.375V14.875C24.5 13.4258 23.3242 12.25 21.875 12.25ZM16.1875 12.25H8.3125V8.3125C8.3125 6.14141 10.0789 4.375 12.25 4.375C14.4211 4.375 16.1875 6.14141 16.1875 8.3125V12.25Z" fill="#F2EEE1"/>
</svg>
